<svg width="92" height="60" viewBox="0 0 92 60" fill="none" xmlns="http://www.w3.org/2000/svg">
<path d="M2.1028 54.7522V43.5522H3.7988V53.4082H8.8868V54.7522H2.1028ZM11.6082 45.3122C11.2882 45.3122 11.0215 45.2162 10.8082 45.0242C10.6055 44.8215 10.5042 44.5709 10.5042 44.2722C10.5042 43.9735 10.6055 43.7282 10.8082 43.5362C11.0215 43.3335 11.2882 43.2322 11.6082 43.2322C11.9282 43.2322 12.1895 43.3335 12.3922 43.5362C12.6055 43.7282 12.7122 43.9735 12.7122 44.2722C12.7122 44.5709 12.6055 44.8215 12.3922 45.0242C12.1895 45.2162 11.9282 45.3122 11.6082 45.3122ZM10.7602 54.7522V46.8162H12.4562V54.7522H10.7602ZM16.919 54.7522L13.943 46.8162H15.719L17.927 53.1362L20.135 46.8162H21.895L18.935 54.7522H16.919ZM24.2488 45.3122C23.9288 45.3122 23.6621 45.2162 23.4488 45.0242C23.2461 44.8215 23.1448 44.5709 23.1448 44.2722C23.1448 43.9735 23.2461 43.7282 23.4488 43.5362C23.6621 43.3335 23.9288 43.2322 24.2488 43.2322C24.5688 43.2322 24.8301 43.3335 25.0328 43.5362C25.2461 43.7282 25.3528 43.9735 25.3528 44.2722C25.3528 44.5709 25.2461 44.8215 25.0328 45.0242C24.8301 45.2162 24.5688 45.3122 24.2488 45.3122ZM23.4008 54.7522V46.8162H25.0968V54.7522H23.4008ZM27.3357 54.7522V46.8162H28.8397L28.9677 48.2082C29.213 47.7175 29.5703 47.3335 30.0397 47.0562C30.5197 46.7682 31.069 46.6242 31.6877 46.6242C32.6477 46.6242 33.3997 46.9229 33.9437 47.5202C34.4983 48.1175 34.7757 49.0082 34.7757 50.1922V54.7522H33.0957V50.3682C33.0957 48.8322 32.4663 48.0642 31.2077 48.0642C30.5783 48.0642 30.0557 48.2882 29.6397 48.7362C29.2343 49.1842 29.0317 49.8242 29.0317 50.6562V54.7522H27.3357ZM40.0212 52.3202C39.6052 52.3202 39.2212 52.2722 38.8692 52.1762L38.1812 52.8482C38.2985 52.9229 38.4425 52.9869 38.6132 53.0402C38.7838 53.0935 39.0238 53.1415 39.3332 53.1842C39.6425 53.2269 40.0638 53.2695 40.5972 53.3122C41.6532 53.4082 42.4158 53.6642 42.8852 54.0802C43.3545 54.4855 43.5892 55.0295 43.5892 55.7122C43.5892 56.1815 43.4612 56.6242 43.2052 57.0402C42.9598 57.4669 42.5705 57.8082 42.0372 58.0642C41.5145 58.3309 40.8425 58.4642 40.0212 58.4642C38.9118 58.4642 38.0105 58.2509 37.3172 57.8242C36.6345 57.4082 36.2932 56.7735 36.2932 55.9202C36.2932 55.5895 36.3785 55.2589 36.5492 54.9282C36.7305 54.6082 37.0132 54.3042 37.3972 54.0162C37.1732 53.9202 36.9758 53.8189 36.8052 53.7122C36.6452 53.5949 36.5012 53.4775 36.3732 53.3602V52.9762L37.7492 51.5682C37.1305 51.0349 36.8212 50.3362 36.8212 49.4722C36.8212 48.9495 36.9438 48.4749 37.1892 48.0482C37.4452 47.6109 37.8132 47.2642 38.2932 47.0082C38.7732 46.7522 39.3492 46.6242 40.0212 46.6242C40.4692 46.6242 40.8852 46.6882 41.2692 46.8162H44.2292V47.9362L42.8212 48.0162C43.0772 48.4535 43.2052 48.9389 43.2052 49.4722C43.2052 50.0055 43.0772 50.4855 42.8212 50.9122C42.5758 51.3389 42.2132 51.6802 41.7332 51.9362C41.2638 52.1922 40.6932 52.3202 40.0212 52.3202ZM40.0212 50.9922C40.5118 50.9922 40.9065 50.8642 41.2052 50.6082C41.5145 50.3415 41.6692 49.9682 41.6692 49.4882C41.6692 48.9975 41.5145 48.6242 41.2052 48.3682C40.9065 48.1122 40.5118 47.9842 40.0212 47.9842C39.5198 47.9842 39.1145 48.1122 38.8052 48.3682C38.5065 48.6242 38.3572 48.9975 38.3572 49.4882C38.3572 49.9682 38.5065 50.3415 38.8052 50.6082C39.1145 50.8642 39.5198 50.9922 40.0212 50.9922ZM37.8932 55.7602C37.8932 56.2189 38.0958 56.5602 38.5012 56.7842C38.9065 57.0189 39.4132 57.1362 40.0212 57.1362C40.6078 57.1362 41.0825 57.0082 41.4452 56.7522C41.8078 56.5069 41.9892 56.1762 41.9892 55.7602C41.9892 55.4509 41.8665 55.1842 41.6212 54.9602C41.3758 54.7469 40.9118 54.6135 40.2292 54.5602C39.7172 54.5282 39.2638 54.4802 38.8692 54.4162C38.4958 54.6189 38.2398 54.8375 38.1012 55.0722C37.9625 55.3069 37.8932 55.5362 37.8932 55.7602ZM49.8372 54.7522V43.5522H53.6932C54.5785 43.5522 55.3038 43.7015 55.8692 44.0002C56.4452 44.2989 56.8718 44.7042 57.1492 45.2162C57.4265 45.7175 57.5652 46.2775 57.5652 46.8962C57.5652 47.5895 57.3785 48.2189 57.0052 48.7842C56.6425 49.3495 56.0718 49.7549 55.2932 50.0002L57.6772 54.7522H55.7092L53.5332 50.2402H51.5332V54.7522H49.8372ZM51.5332 48.9602H53.5972C54.3652 48.9602 54.9252 48.7735 55.2772 48.4002C55.6398 48.0269 55.8212 47.5415 55.8212 46.9442C55.8212 46.3469 55.6452 45.8722 55.2932 45.5202C54.9412 45.1575 54.3705 44.9762 53.5812 44.9762H51.5332V48.9602ZM62.7352 54.9442C61.9778 54.9442 61.2952 54.7735 60.6872 54.4322C60.0898 54.0802 59.6152 53.5949 59.2632 52.9762C58.9112 52.3469 58.7352 51.6162 58.7352 50.7842C58.7352 49.9522 58.9112 49.2269 59.2632 48.6082C59.6258 47.9789 60.1112 47.4935 60.7192 47.1522C61.3272 46.8002 62.0045 46.6242 62.7512 46.6242C63.5085 46.6242 64.1858 46.8002 64.7832 47.1522C65.3912 47.4935 65.8712 47.9789 66.2232 48.6082C66.5858 49.2269 66.7672 49.9522 66.7672 50.7842C66.7672 51.6162 66.5858 52.3469 66.2232 52.9762C65.8712 53.5949 65.3912 54.0802 64.7832 54.4322C64.1752 54.7735 63.4925 54.9442 62.7352 54.9442ZM62.7352 53.4882C63.1405 53.4882 63.5138 53.3869 63.8552 53.1842C64.2072 52.9815 64.4898 52.6829 64.7032 52.2882C64.9165 51.8829 65.0232 51.3815 65.0232 50.7842C65.0232 50.1869 64.9165 49.6909 64.7032 49.2962C64.5005 48.8909 64.2232 48.5869 63.8712 48.3842C63.5298 48.1815 63.1565 48.0802 62.7512 48.0802C62.3458 48.0802 61.9672 48.1815 61.6152 48.3842C61.2738 48.5869 60.9965 48.8909 60.7832 49.2962C60.5698 49.6909 60.4632 50.1869 60.4632 50.7842C60.4632 51.3815 60.5698 51.8829 60.7832 52.2882C60.9965 52.6829 61.2738 52.9815 61.6152 53.1842C61.9565 53.3869 62.3298 53.4882 62.7352 53.4882ZM72.3133 54.9442C71.556 54.9442 70.8733 54.7735 70.2653 54.4322C69.668 54.0802 69.1933 53.5949 68.8413 52.9762C68.4893 52.3469 68.3133 51.6162 68.3133 50.7842C68.3133 49.9522 68.4893 49.2269 68.8413 48.6082C69.204 47.9789 69.6893 47.4935 70.2973 47.1522C70.9053 46.8002 71.5826 46.6242 72.3293 46.6242C73.0866 46.6242 73.764 46.8002 74.3613 47.1522C74.9693 47.4935 75.4493 47.9789 75.8013 48.6082C76.164 49.2269 76.3453 49.9522 76.3453 50.7842C76.3453 51.6162 76.164 52.3469 75.8013 52.9762C75.4493 53.5949 74.9693 54.0802 74.3613 54.4322C73.7533 54.7735 73.0706 54.9442 72.3133 54.9442ZM72.3133 53.4882C72.7186 53.4882 73.092 53.3869 73.4333 53.1842C73.7853 52.9815 74.068 52.6829 74.2813 52.2882C74.4946 51.8829 74.6013 51.3815 74.6013 50.7842C74.6013 50.1869 74.4946 49.6909 74.2813 49.2962C74.0786 48.8909 73.8013 48.5869 73.4493 48.3842C73.108 48.1815 72.7346 48.0802 72.3293 48.0802C71.924 48.0802 71.5453 48.1815 71.1933 48.3842C70.852 48.5869 70.5746 48.8909 70.3613 49.2962C70.148 49.6909 70.0413 50.1869 70.0413 50.7842C70.0413 51.3815 70.148 51.8829 70.3613 52.2882C70.5746 52.6829 70.852 52.9815 71.1933 53.1842C71.5346 53.3869 71.908 53.4882 72.3133 53.4882ZM78.1794 54.7522V46.8162H79.6834L79.8274 47.9362C80.0834 47.5309 80.4194 47.2109 80.8354 46.9762C81.2621 46.7415 81.7528 46.6242 82.3074 46.6242C83.5661 46.6242 84.4408 47.1202 84.9314 48.1122C85.2194 47.6535 85.6034 47.2909 86.0834 47.0242C86.5741 46.7575 87.1021 46.6242 87.6674 46.6242C88.6594 46.6242 89.4381 46.9229 90.0034 47.5202C90.5688 48.1175 90.8514 49.0082 90.8514 50.1922V54.7522H89.1554V50.3682C89.1554 48.8322 88.5688 48.0642 87.3954 48.0642C86.7981 48.0642 86.3074 48.2882 85.9234 48.7362C85.5501 49.1842 85.3634 49.8242 85.3634 50.6562V54.7522H83.6674V50.3682C83.6674 48.8322 83.0754 48.0642 81.8914 48.0642C81.3048 48.0642 80.8194 48.2882 80.4354 48.7362C80.0621 49.1842 79.8754 49.8242 79.8754 50.6562V54.7522H78.1794Z" fill="#808080"/>
<g clip-path="url(#clip0_2171_449)">
<path d="M38.9199 12.0491H45.0605C45.6004 12.0491 46.0933 12.2532 46.4668 12.5879C46.8403 12.2531 47.3332 12.0491 47.873 12.0491H54.0137V4.50853C54.0137 4.12204 53.7044 3.80043 53.318 3.79907C53.3121 3.79907 53.5579 3.79907 39.623 3.79907C39.2229 3.79907 38.9199 4.1271 38.9199 4.50853V12.0491Z" fill="#666666"/>
<path d="M47.1699 14.1584V15.7991H54.0137C54.0137 14.7605 54.0137 14.5472 54.0137 13.4553H47.873C47.4853 13.4553 47.1699 13.7707 47.1699 14.1584Z" fill="#666666"/>
<path d="M56.194 8.67515C55.7606 8.68865 55.4199 9.05221 55.4199 9.4858C55.4199 9.59708 55.4199 16.9016 55.4199 16.5022C55.4199 16.8905 55.1051 17.2053 54.7168 17.2053C54.1547 17.2053 37.683 17.2053 38.2168 17.2053C37.8285 17.2053 37.5137 16.8905 37.5137 16.5022C37.5137 16.2428 37.5137 9.41816 37.5137 9.4858C37.5137 9.05221 37.173 8.68865 36.7396 8.67515C35.4904 8.63624 34.4668 9.63561 34.4668 10.8772V18.0959C34.4668 19.2609 35.4112 20.2053 36.5762 20.2053H37.5137V20.9823C37.5137 21.3609 37.8046 21.6867 38.1828 21.7045C38.5866 21.7236 38.9199 21.4018 38.9199 21.0022V20.2053H54.0137V20.9823C54.0137 21.3609 54.3046 21.6867 54.6828 21.7045C55.0866 21.7236 55.4199 21.4018 55.4199 21.0022V20.2053H56.3574C57.5224 20.2053 58.4668 19.2609 58.4668 18.0959V10.9168C58.4668 9.61879 57.4352 8.63647 56.194 8.67515Z" fill="#666666"/>
<path d="M45.7637 14.1584C45.7637 13.7707 45.4482 13.4553 45.0605 13.4553H38.9199V15.7991H45.7637V14.1584Z" fill="#666666"/>
</g>
<defs>
<clipPath id="clip0_2171_449">
<rect width="24" height="24" fill="white" transform="translate(34.4668 0.752197)"/>
</clipPath>
</defs>
</svg>
