<svg width="59" height="60" viewBox="0 0 59 60" fill="none" xmlns="http://www.w3.org/2000/svg">
<path d="M1.6028 54.7522V43.5522H3.2988V48.3522L7.7148 43.5522H9.8108L5.6668 48.0162L9.9068 54.7522H7.8428L4.4508 49.3122L3.2988 50.5602V54.7522H1.6028ZM12.28 45.3122C11.96 45.3122 11.6934 45.2162 11.48 45.0242C11.2774 44.8215 11.176 44.5709 11.176 44.2722C11.176 43.9735 11.2774 43.7282 11.48 43.5362C11.6934 43.3335 11.96 43.2322 12.28 43.2322C12.6 43.2322 12.8614 43.3335 13.064 43.5362C13.2774 43.7282 13.384 43.9735 13.384 44.2722C13.384 44.5709 13.2774 44.8215 13.064 45.0242C12.8614 45.2162 12.6 45.3122 12.28 45.3122ZM11.432 54.7522V46.8162H13.128V54.7522H11.432ZM18.6949 54.7522C17.9163 54.7522 17.2976 54.5655 16.8389 54.1922C16.3803 53.8082 16.1509 53.1309 16.1509 52.1602V48.2402H14.7909V46.8162H16.1509L16.3589 44.8002H17.8469V46.8162H20.0869V48.2402H17.8469V52.1602C17.8469 52.5975 17.9376 52.9015 18.1189 53.0722C18.3109 53.2322 18.6363 53.3122 19.0949 53.3122H20.0069V54.7522H18.6949ZM25.3925 54.9442C24.6139 54.9442 23.9152 54.7682 23.2965 54.4162C22.6885 54.0642 22.2085 53.5789 21.8565 52.9602C21.5152 52.3309 21.3445 51.6055 21.3445 50.7842C21.3445 49.9629 21.5152 49.2429 21.8565 48.6242C22.2085 47.9949 22.6885 47.5042 23.2965 47.1522C23.9152 46.8002 24.6139 46.6242 25.3925 46.6242C26.3739 46.6242 27.1952 46.8802 27.8565 47.3922C28.5285 47.9042 28.9605 48.5975 29.1525 49.4722H27.3765C27.2699 49.0349 27.0352 48.6935 26.6725 48.4482C26.3099 48.2029 25.8832 48.0802 25.3925 48.0802C24.9765 48.0802 24.5925 48.1869 24.2405 48.4002C23.8885 48.6029 23.6059 48.9069 23.3925 49.3122C23.1792 49.7069 23.0725 50.1975 23.0725 50.7842C23.0725 51.3709 23.1792 51.8669 23.3925 52.2722C23.6059 52.6669 23.8885 52.9709 24.2405 53.1842C24.5925 53.3975 24.9765 53.5042 25.3925 53.5042C25.8832 53.5042 26.3099 53.3815 26.6725 53.1362C27.0352 52.8909 27.2699 52.5442 27.3765 52.0962H29.1525C28.9712 52.9495 28.5445 53.6375 27.8725 54.1602C27.2005 54.6829 26.3739 54.9442 25.3925 54.9442ZM30.9919 54.7522V43.2322H32.6879V48.0962C32.9546 47.6375 33.3226 47.2802 33.7919 47.0242C34.2719 46.7575 34.7999 46.6242 35.3759 46.6242C36.3253 46.6242 37.0719 46.9229 37.6159 47.5202C38.1599 48.1175 38.4319 49.0082 38.4319 50.1922V54.7522H36.7519V50.3682C36.7519 48.8322 36.1386 48.0642 34.9119 48.0642C34.2719 48.0642 33.7386 48.2882 33.3119 48.7362C32.8959 49.1842 32.6879 49.8242 32.6879 50.6562V54.7522H30.9919ZM44.1414 54.9442C43.3628 54.9442 42.6694 54.7735 42.0614 54.4322C41.4641 54.0802 40.9948 53.5949 40.6534 52.9762C40.3121 52.3575 40.1414 51.6375 40.1414 50.8162C40.1414 49.9842 40.3068 49.2535 40.6374 48.6242C40.9788 47.9949 41.4481 47.5042 42.0454 47.1522C42.6534 46.8002 43.3574 46.6242 44.1574 46.6242C44.9361 46.6242 45.6134 46.8002 46.1894 47.1522C46.7654 47.4935 47.2134 47.9522 47.5334 48.5282C47.8534 49.1042 48.0134 49.7389 48.0134 50.4322C48.0134 50.5389 48.0081 50.6562 47.9974 50.7842C47.9974 50.9015 47.9921 51.0349 47.9814 51.1842H41.8054C41.8588 51.9522 42.1094 52.5389 42.5574 52.9442C43.0161 53.3389 43.5441 53.5362 44.1414 53.5362C44.6214 53.5362 45.0214 53.4295 45.3414 53.2162C45.6721 52.9922 45.9174 52.6935 46.0774 52.3202H47.7734C47.5601 53.0669 47.1334 53.6909 46.4934 54.1922C45.8641 54.6935 45.0801 54.9442 44.1414 54.9442ZM44.1414 48.0162C43.5761 48.0162 43.0748 48.1869 42.6374 48.5282C42.2001 48.8589 41.9334 49.3602 41.8374 50.0322H46.3174C46.2854 49.4135 46.0668 48.9229 45.6614 48.5602C45.2561 48.1975 44.7494 48.0162 44.1414 48.0162ZM49.7732 54.7522V46.8162H51.2772L51.4052 48.2082C51.6505 47.7175 52.0078 47.3335 52.4772 47.0562C52.9572 46.7682 53.5065 46.6242 54.1252 46.6242C55.0852 46.6242 55.8372 46.9229 56.3812 47.5202C56.9358 48.1175 57.2132 49.0082 57.2132 50.1922V54.7522H55.5332V50.3682C55.5332 48.8322 54.9038 48.0642 53.6452 48.0642C53.0158 48.0642 52.4932 48.2882 52.0772 48.7362C51.6718 49.1842 51.4692 49.8242 51.4692 50.6562V54.7522H49.7732Z" fill="#808080"/>
<g clip-path="url(#clip0_2171_460)">
<path d="M17.4727 24.7522H27.3586V19.083H17.4727V24.7522ZM19.6348 20.5511H25.2433V21.9567H19.6348V20.5511Z" fill="#666666"/>
<path d="M17.4727 17.6774H27.3586V12.1019H17.4727V17.6774ZM19.6348 13.5975H25.2433V15.0031H19.6348V13.5975Z" fill="#666666"/>
<path d="M28.7637 24.7522H41.4608V12.1019H28.7637V24.7522ZM37.1972 13.5975H38.6028V15.0378H37.1972V13.5975ZM34.386 13.5975H35.7916V15.0378H34.386V13.5975ZM31.5749 13.5975H32.9805V15.0378H31.5749V13.5975ZM31.5749 16.2952H38.6028V21.9411H31.5749V16.2952Z" fill="#666666"/>
<path d="M37.1972 3.99271V0.752197H32.9805V3.99506L28.7637 6.8062V9.29071H41.4608V6.80385L37.1972 3.99271Z" fill="#666666"/>
</g>
<defs>
<clipPath id="clip0_2171_460">
<rect width="24" height="24" fill="white" transform="translate(17.4668 0.752197)"/>
</clipPath>
</defs>
</svg>
