<svg width="96" height="59" viewBox="0 0 96 59" fill="none" xmlns="http://www.w3.org/2000/svg">
<path d="M2.1028 53.8179V42.6179H5.7348C7.0468 42.6179 8.12413 42.8472 8.9668 43.3059C9.82013 43.7645 10.4495 44.4152 10.8548 45.2579C11.2708 46.0899 11.4788 47.0819 11.4788 48.2339C11.4788 49.3752 11.2708 50.3672 10.8548 51.2099C10.4495 52.0419 9.82013 52.6872 8.9668 53.1459C8.12413 53.5939 7.0468 53.8179 5.7348 53.8179H2.1028ZM3.7988 52.3779H5.6708C6.68413 52.3779 7.48413 52.2125 8.0708 51.8819C8.66813 51.5512 9.0948 51.0765 9.3508 50.4579C9.61746 49.8392 9.7508 49.0979 9.7508 48.2339C9.7508 47.3699 9.61746 46.6232 9.3508 45.9939C9.0948 45.3645 8.66813 44.8845 8.0708 44.5539C7.48413 44.2125 6.68413 44.0419 5.6708 44.0419H3.7988V52.3779ZM14.2488 44.3779C13.9288 44.3779 13.6621 44.2819 13.4488 44.0899C13.2461 43.8872 13.1448 43.6365 13.1448 43.3379C13.1448 43.0392 13.2461 42.7939 13.4488 42.6019C13.6621 42.3992 13.9288 42.2979 14.2488 42.2979C14.5688 42.2979 14.8301 42.3992 15.0328 42.6019C15.2461 42.7939 15.3528 43.0392 15.3528 43.3379C15.3528 43.6365 15.2461 43.8872 15.0328 44.0899C14.8301 44.2819 14.5688 44.3779 14.2488 44.3779ZM13.4008 53.8179V45.8819H15.0968V53.8179H13.4008ZM17.3357 53.8179V45.8819H18.8397L18.9677 47.2739C19.213 46.7832 19.5703 46.3992 20.0397 46.1219C20.5197 45.8339 21.069 45.6899 21.6877 45.6899C22.6477 45.6899 23.3997 45.9885 23.9437 46.5859C24.4983 47.1832 24.7757 48.0739 24.7757 49.2579V53.8179H23.0957V49.4339C23.0957 47.8979 22.4663 47.1299 21.2077 47.1299C20.5783 47.1299 20.0557 47.3539 19.6397 47.8019C19.2343 48.2499 19.0317 48.8899 19.0317 49.7219V53.8179H17.3357ZM27.7332 44.3779C27.4132 44.3779 27.1465 44.2819 26.9332 44.0899C26.7305 43.8872 26.6292 43.6365 26.6292 43.3379C26.6292 43.0392 26.7305 42.7939 26.9332 42.6019C27.1465 42.3992 27.4132 42.2979 27.7332 42.2979C28.0532 42.2979 28.3145 42.3992 28.5172 42.6019C28.7305 42.7939 28.8372 43.0392 28.8372 43.3379C28.8372 43.6365 28.7305 43.8872 28.5172 44.0899C28.3145 44.2819 28.0532 44.3779 27.7332 44.3779ZM26.8852 53.8179V45.8819H28.5812V53.8179H26.8852ZM30.82 53.8179V45.8819H32.324L32.452 47.2739C32.6974 46.7832 33.0547 46.3992 33.524 46.1219C34.004 45.8339 34.5534 45.6899 35.172 45.6899C36.132 45.6899 36.884 45.9885 37.428 46.5859C37.9827 47.1832 38.26 48.0739 38.26 49.2579V53.8179H36.58V49.4339C36.58 47.8979 35.9507 47.1299 34.692 47.1299C34.0627 47.1299 33.54 47.3539 33.124 47.8019C32.7187 48.2499 32.516 48.8899 32.516 49.7219V53.8179H30.82ZM43.5055 51.3859C43.0895 51.3859 42.7055 51.3379 42.3535 51.2419L41.6655 51.9139C41.7829 51.9885 41.9269 52.0525 42.0975 52.1059C42.2682 52.1592 42.5082 52.2072 42.8175 52.2499C43.1269 52.2925 43.5482 52.3352 44.0815 52.3779C45.1375 52.4739 45.9002 52.7299 46.3695 53.1459C46.8389 53.5512 47.0735 54.0952 47.0735 54.7779C47.0735 55.2472 46.9455 55.6899 46.6895 56.1059C46.4442 56.5325 46.0549 56.8739 45.5215 57.1299C44.9989 57.3965 44.3269 57.5299 43.5055 57.5299C42.3962 57.5299 41.4949 57.3165 40.8015 56.8899C40.1189 56.4739 39.7775 55.8392 39.7775 54.9859C39.7775 54.6552 39.8629 54.3245 40.0335 53.9939C40.2149 53.6739 40.4975 53.3699 40.8815 53.0819C40.6575 52.9859 40.4602 52.8845 40.2895 52.7779C40.1295 52.6605 39.9855 52.5432 39.8575 52.4259V52.0419L41.2335 50.6339C40.6149 50.1005 40.3055 49.4019 40.3055 48.5379C40.3055 48.0152 40.4282 47.5405 40.6735 47.1139C40.9295 46.6765 41.2975 46.3299 41.7775 46.0739C42.2575 45.8179 42.8335 45.6899 43.5055 45.6899C43.9535 45.6899 44.3695 45.7539 44.7535 45.8819H47.7135V47.0019L46.3055 47.0819C46.5615 47.5192 46.6895 48.0045 46.6895 48.5379C46.6895 49.0712 46.5615 49.5512 46.3055 49.9779C46.0602 50.4045 45.6975 50.7459 45.2175 51.0019C44.7482 51.2579 44.1775 51.3859 43.5055 51.3859ZM43.5055 50.0579C43.9962 50.0579 44.3909 49.9299 44.6895 49.6739C44.9989 49.4072 45.1535 49.0339 45.1535 48.5539C45.1535 48.0632 44.9989 47.6899 44.6895 47.4339C44.3909 47.1779 43.9962 47.0499 43.5055 47.0499C43.0042 47.0499 42.5989 47.1779 42.2895 47.4339C41.9909 47.6899 41.8415 48.0632 41.8415 48.5539C41.8415 49.0339 41.9909 49.4072 42.2895 49.6739C42.5989 49.9299 43.0042 50.0579 43.5055 50.0579ZM41.3775 54.8259C41.3775 55.2845 41.5802 55.6259 41.9855 55.8499C42.3909 56.0845 42.8975 56.2019 43.5055 56.2019C44.0922 56.2019 44.5669 56.0739 44.9295 55.8179C45.2922 55.5725 45.4735 55.2419 45.4735 54.8259C45.4735 54.5165 45.3509 54.2499 45.1055 54.0259C44.8602 53.8125 44.3962 53.6792 43.7135 53.6259C43.2015 53.5939 42.7482 53.5459 42.3535 53.4819C41.9802 53.6845 41.7242 53.9032 41.5855 54.1379C41.4469 54.3725 41.3775 54.6019 41.3775 54.8259ZM53.3215 53.8179V42.6179H57.1775C58.0629 42.6179 58.7882 42.7672 59.3535 43.0659C59.9295 43.3645 60.3562 43.7699 60.6335 44.2819C60.9109 44.7832 61.0495 45.3432 61.0495 45.9619C61.0495 46.6552 60.8629 47.2845 60.4895 47.8499C60.1269 48.4152 59.5562 48.8205 58.7775 49.0659L61.1615 53.8179H59.1935L57.0175 49.3059H55.0175V53.8179H53.3215ZM55.0175 48.0259H57.0815C57.8495 48.0259 58.4095 47.8392 58.7615 47.4659C59.1242 47.0925 59.3055 46.6072 59.3055 46.0099C59.3055 45.4125 59.1295 44.9379 58.7775 44.5859C58.4255 44.2232 57.8549 44.0419 57.0655 44.0419H55.0175V48.0259ZM66.2195 54.0099C65.4622 54.0099 64.7795 53.8392 64.1715 53.4979C63.5742 53.1459 63.0995 52.6605 62.7475 52.0419C62.3955 51.4125 62.2195 50.6819 62.2195 49.8499C62.2195 49.0179 62.3955 48.2925 62.7475 47.6739C63.1102 47.0445 63.5955 46.5592 64.2035 46.2179C64.8115 45.8659 65.4889 45.6899 66.2355 45.6899C66.9929 45.6899 67.6702 45.8659 68.2675 46.2179C68.8755 46.5592 69.3555 47.0445 69.7075 47.6739C70.0702 48.2925 70.2515 49.0179 70.2515 49.8499C70.2515 50.6819 70.0702 51.4125 69.7075 52.0419C69.3555 52.6605 68.8755 53.1459 68.2675 53.4979C67.6595 53.8392 66.9769 54.0099 66.2195 54.0099ZM66.2195 52.5539C66.6249 52.5539 66.9982 52.4525 67.3395 52.2499C67.6915 52.0472 67.9742 51.7485 68.1875 51.3539C68.4009 50.9485 68.5075 50.4472 68.5075 49.8499C68.5075 49.2525 68.4009 48.7565 68.1875 48.3619C67.9849 47.9565 67.7075 47.6525 67.3555 47.4499C67.0142 47.2472 66.6409 47.1459 66.2355 47.1459C65.8302 47.1459 65.4515 47.2472 65.0995 47.4499C64.7582 47.6525 64.4809 47.9565 64.2675 48.3619C64.0542 48.7565 63.9475 49.2525 63.9475 49.8499C63.9475 50.4472 64.0542 50.9485 64.2675 51.3539C64.4809 51.7485 64.7582 52.0472 65.0995 52.2499C65.4409 52.4525 65.8142 52.5539 66.2195 52.5539ZM75.7977 54.0099C75.0403 54.0099 74.3577 53.8392 73.7497 53.4979C73.1523 53.1459 72.6777 52.6605 72.3257 52.0419C71.9737 51.4125 71.7977 50.6819 71.7977 49.8499C71.7977 49.0179 71.9737 48.2925 72.3257 47.6739C72.6883 47.0445 73.1737 46.5592 73.7817 46.2179C74.3897 45.8659 75.067 45.6899 75.8137 45.6899C76.571 45.6899 77.2483 45.8659 77.8457 46.2179C78.4537 46.5592 78.9337 47.0445 79.2857 47.6739C79.6483 48.2925 79.8297 49.0179 79.8297 49.8499C79.8297 50.6819 79.6483 51.4125 79.2857 52.0419C78.9337 52.6605 78.4537 53.1459 77.8457 53.4979C77.2377 53.8392 76.555 54.0099 75.7977 54.0099ZM75.7977 52.5539C76.203 52.5539 76.5763 52.4525 76.9177 52.2499C77.2697 52.0472 77.5523 51.7485 77.7657 51.3539C77.979 50.9485 78.0857 50.4472 78.0857 49.8499C78.0857 49.2525 77.979 48.7565 77.7657 48.3619C77.563 47.9565 77.2857 47.6525 76.9337 47.4499C76.5923 47.2472 76.219 47.1459 75.8137 47.1459C75.4083 47.1459 75.0297 47.2472 74.6777 47.4499C74.3363 47.6525 74.059 47.9565 73.8457 48.3619C73.6323 48.7565 73.5257 49.2525 73.5257 49.8499C73.5257 50.4472 73.6323 50.9485 73.8457 51.3539C74.059 51.7485 74.3363 52.0472 74.6777 52.2499C75.019 52.4525 75.3923 52.5539 75.7977 52.5539ZM81.6638 53.8179V45.8819H83.1678L83.3118 47.0019C83.5678 46.5965 83.9038 46.2765 84.3198 46.0419C84.7465 45.8072 85.2371 45.6899 85.7918 45.6899C87.0505 45.6899 87.9251 46.1859 88.4158 47.1779C88.7038 46.7192 89.0878 46.3565 89.5678 46.0899C90.0585 45.8232 90.5865 45.6899 91.1518 45.6899C92.1438 45.6899 92.9225 45.9885 93.4878 46.5859C94.0531 47.1832 94.3358 48.0739 94.3358 49.2579V53.8179H92.6398V49.4339C92.6398 47.8979 92.0531 47.1299 90.8798 47.1299C90.2825 47.1299 89.7918 47.3539 89.4078 47.8019C89.0345 48.2499 88.8478 48.8899 88.8478 49.7219V53.8179H87.1518V49.4339C87.1518 47.8979 86.5598 47.1299 85.3758 47.1299C84.7891 47.1299 84.3038 47.3539 83.9198 47.8019C83.5465 48.2499 83.3598 48.8899 83.3598 49.7219V53.8179H81.6638Z" fill="#808080"/>
<g clip-path="url(#clip0_2171_473)">
<path d="M56.0874 10.3104C56.3683 10.3104 56.596 10.0827 56.596 9.80181V8.17036C56.596 7.88946 56.3683 7.66177 56.0874 7.66177L55.3636 7.66618L52.9883 10.3104H56.0874Z" fill="#666666"/>
<path d="M40.8426 10.3102H43.9661L41.5496 7.66168H40.8426C40.5617 7.66168 40.334 7.88937 40.334 8.17027V9.80159C40.334 10.0825 40.5617 10.3102 40.8426 10.3102Z" fill="#666666"/>
<path d="M48.7573 12.933L53.4705 7.66177H43.4609L48.2516 12.935C48.3874 13.0845 48.6227 13.0836 48.7573 12.933Z" fill="#666666"/>
<path d="M50.0849 20.351H49.2093V14.4323C48.9993 14.5536 48.7593 14.6198 48.5117 14.6208C48.5098 14.6208 48.508 14.6208 48.5061 14.6208C48.2567 14.6208 48.0146 14.5545 47.8029 14.4323V20.351H46.8477C46.4594 20.351 46.1445 20.6658 46.1445 21.0541C46.1445 21.4425 46.4594 21.7573 46.8477 21.7573H50.0849C50.4733 21.7573 50.7881 21.4425 50.7881 21.0541C50.7881 20.6658 50.4732 20.351 50.0849 20.351Z" fill="#666666"/>
<path d="M42.3965 12.2667H37.8731V3.93151C37.8731 3.54317 37.5583 3.22833 37.17 3.22833C36.7816 3.22833 36.4668 3.54317 36.4668 3.93151V21.1104C36.4668 21.4988 36.7816 21.8136 37.17 21.8136C37.5583 21.8136 37.8731 21.4988 37.8731 21.1104V15.8581H42.9858V21.1104C42.9858 21.4988 43.3007 21.8136 43.689 21.8136C44.0774 21.8136 44.3922 21.4988 44.3922 21.1104V14.2624C44.3922 13.1619 43.4969 12.2667 42.3965 12.2667Z" fill="#666666"/>
<path d="M59.7639 3.22833C59.3756 3.22833 59.0607 3.54317 59.0607 3.93151V12.2667H54.6422C53.5417 12.2667 52.6465 13.162 52.6465 14.2624V21.1104C52.6465 21.4988 52.9613 21.8136 53.3497 21.8136C53.738 21.8136 54.0528 21.4988 54.0528 21.1104V15.8569H59.0608V21.1104C59.0608 21.4988 59.3756 21.8136 59.764 21.8136C60.1523 21.8136 60.4671 21.4988 60.4671 21.1104V3.93151C60.4671 3.54317 60.1523 3.22833 59.7639 3.22833Z" fill="#666666"/>
</g>
<defs>
<clipPath id="clip0_2171_473">
<rect width="24" height="24" fill="white" transform="translate(36.4668 0.520996)"/>
</clipPath>
</defs>
</svg>
