<svg width="48" height="57" viewBox="0 0 48 57" fill="none" xmlns="http://www.w3.org/2000/svg">
<g clip-path="url(#clip0_2171_486)">
<path d="M36.4668 7.20276V2.51526C36.4668 1.61062 35.7308 0.874634 34.8262 0.874634H26.3887C25.484 0.874634 24.748 1.61062 24.748 2.51526V7.20276C24.748 8.1074 25.484 8.84338 26.3887 8.84338H28.3007L27.9491 10.2496H24.0137L23.8709 7.10699C23.8195 5.97787 22.8939 5.09338 21.7637 5.09338H17.8887C16.7585 5.09338 15.8329 5.97787 15.7815 7.10699L15.6387 10.2496H13.1699C12.7816 10.2496 12.4668 10.5644 12.4668 10.9528V23.1403C12.4668 23.5286 12.7816 23.8434 13.1699 23.8434C13.5582 23.8434 13.873 23.5286 13.873 23.1403V14.4684H15.471C15.5222 15.0472 15.7652 15.5869 16.1744 16.0152C16.5906 16.4506 17.1295 16.7196 17.7168 16.7917V17.984C17.7168 18.8091 18.3291 19.4935 19.1231 19.6076V21.2974L16.3518 22.0892C16.0499 22.1754 15.8418 22.4513 15.8418 22.7653V24.1715C15.8418 24.5598 16.1566 24.8746 16.5449 24.8746C16.9332 24.8746 17.248 24.5598 17.248 24.1715V23.2956L19.123 22.7599V23.7028C19.123 24.0911 19.4379 24.4059 19.8262 24.4059C20.2145 24.4059 20.5293 24.0911 20.5293 23.7028V22.7599L22.4043 23.2957V24.1715C22.4043 24.5598 22.7191 24.8746 23.1074 24.8746C23.4957 24.8746 23.8105 24.5598 23.8105 24.1715V22.7653C23.8105 22.4513 23.6025 22.1754 23.3006 22.0892L20.5293 21.2974V19.6077C21.3233 19.4936 21.9355 18.8091 21.9355 17.9841V16.7918C22.5228 16.7196 23.0618 16.4507 23.478 16.0152C23.8872 15.587 24.1302 15.0473 24.1814 14.4684H25.6855V23.1403C25.6855 23.5286 26.0004 23.8434 26.3887 23.8434C26.777 23.8434 27.0918 23.5286 27.0918 23.1403V21.0309H35.0605V23.1403C35.0605 23.5286 35.3754 23.8434 35.7637 23.8434C36.152 23.8434 36.4668 23.5286 36.4668 23.1403V10.9528C36.4668 10.5644 36.152 10.2496 35.7637 10.2496H33.2658L32.9142 8.84338H34.8262C35.7308 8.84338 36.4668 8.1074 36.4668 7.20276ZM15.5108 13.0621H13.873V11.6559H15.5747L15.5108 13.0621ZM20.5293 17.984C20.5293 18.1132 20.4242 18.2184 20.2949 18.2184H19.3574C19.2282 18.2184 19.123 18.1132 19.123 17.984V16.8121H20.5293V17.984ZM22.4613 15.0436C22.238 15.2772 21.9371 15.4059 21.614 15.4059H18.0384C17.7153 15.4059 17.4144 15.2772 17.1911 15.0436C16.9679 14.81 16.853 14.5035 16.8677 14.1808L17.1863 7.17079C17.2034 6.79448 17.512 6.49963 17.8887 6.49963H21.7636C22.1404 6.49963 22.4489 6.79448 22.466 7.17084L22.7846 14.1808C22.7994 14.5036 22.6845 14.81 22.4613 15.0436ZM35.0605 19.6246H27.0918V14.4684H35.0605V19.6246ZM35.0605 11.6559V13.0621H24.1415L24.0776 11.6559H35.0605ZM29.3986 10.2496L29.7501 8.84338H31.4647L31.8162 10.2496H29.3986ZM26.3887 7.43713C26.2594 7.43713 26.1543 7.33199 26.1543 7.20276V2.51526C26.1543 2.38602 26.2594 2.28088 26.3887 2.28088H34.8262C34.9554 2.28088 35.0605 2.38602 35.0605 2.51526V7.20276C35.0605 7.33199 34.9554 7.43713 34.8262 7.43713H26.3887Z" fill="white"/>
<path d="M29.6699 17.2809H32.4824C32.8707 17.2809 33.1855 16.9661 33.1855 16.5778C33.1855 16.1894 32.8707 15.8746 32.4824 15.8746H29.6699C29.2816 15.8746 28.9668 16.1894 28.9668 16.5778C28.9668 16.9661 29.2816 17.2809 29.6699 17.2809Z" fill="white"/>
</g>
<path d="M7.2708 51.6562C6.16146 51.6562 5.1908 51.4109 4.3588 50.9202C3.5268 50.4296 2.87613 49.7522 2.4068 48.8882C1.93746 48.0136 1.7028 47.0056 1.7028 45.8642C1.7028 44.7229 1.93746 43.7202 2.4068 42.8562C2.87613 41.9816 3.5268 41.2989 4.3588 40.8082C5.1908 40.3176 6.16146 40.0722 7.2708 40.0722C8.38013 40.0722 9.3508 40.3176 10.1828 40.8082C11.0148 41.2989 11.6601 41.9816 12.1188 42.8562C12.5881 43.7202 12.8228 44.7229 12.8228 45.8642C12.8228 47.0056 12.5881 48.0136 12.1188 48.8882C11.6601 49.7522 11.0148 50.4296 10.1828 50.9202C9.3508 51.4109 8.38013 51.6562 7.2708 51.6562ZM7.2708 50.1362C8.0388 50.1362 8.70546 49.9656 9.2708 49.6242C9.8468 49.2829 10.2948 48.7922 10.6148 48.1522C10.9348 47.5122 11.0948 46.7496 11.0948 45.8642C11.0948 44.9789 10.9348 44.2162 10.6148 43.5762C10.2948 42.9362 9.8468 42.4456 9.2708 42.1042C8.70546 41.7629 8.0388 41.5922 7.2708 41.5922C6.5028 41.5922 5.8308 41.7629 5.2548 42.1042C4.6788 42.4456 4.2308 42.9362 3.9108 43.5762C3.60146 44.2162 3.4468 44.9789 3.4468 45.8642C3.4468 46.7496 3.60146 47.5122 3.9108 48.1522C4.2308 48.7922 4.6788 49.2829 5.2548 49.6242C5.8308 49.9656 6.5028 50.1362 7.2708 50.1362ZM15.0482 51.4642V44.9522H13.9122V43.5282H15.0482V42.3762C15.0482 41.5122 15.2615 40.8936 15.6882 40.5202C16.1255 40.1362 16.7388 39.9442 17.5282 39.9442H18.3602V41.3842H17.7842C17.4108 41.3842 17.1442 41.4642 16.9842 41.6242C16.8242 41.7736 16.7442 42.0296 16.7442 42.3922V43.5282H18.5682V44.9522H16.7442V51.4642H15.0482ZM20.5794 51.4642V44.9522H19.4434V43.5282H20.5794V42.3762C20.5794 41.5122 20.7928 40.8936 21.2194 40.5202C21.6568 40.1362 22.2701 39.9442 23.0594 39.9442H23.8914V41.3842H23.3154C22.9421 41.3842 22.6754 41.4642 22.5154 41.6242C22.3554 41.7736 22.2754 42.0296 22.2754 42.3922V43.5282H27.2994V51.4642H25.6034V44.9522H22.2754V51.4642H20.5794ZM26.4674 42.2002C26.1474 42.2002 25.8808 42.1042 25.6674 41.9122C25.4648 41.7096 25.3634 41.4536 25.3634 41.1442C25.3634 40.8456 25.4648 40.6002 25.6674 40.4082C25.8808 40.2162 26.1474 40.1202 26.4674 40.1202C26.7874 40.1202 27.0488 40.2162 27.2514 40.4082C27.4648 40.6002 27.5714 40.8456 27.5714 41.1442C27.5714 41.4536 27.4648 41.7096 27.2514 41.9122C27.0488 42.1042 26.7874 42.2002 26.4674 42.2002ZM33.3144 51.6562C32.5358 51.6562 31.8371 51.4802 31.2184 51.1282C30.6104 50.7762 30.1304 50.2909 29.7784 49.6722C29.4371 49.0429 29.2664 48.3176 29.2664 47.4962C29.2664 46.6749 29.4371 45.9549 29.7784 45.3362C30.1304 44.7069 30.6104 44.2162 31.2184 43.8642C31.8371 43.5122 32.5358 43.3362 33.3144 43.3362C34.2958 43.3362 35.1171 43.5922 35.7784 44.1042C36.4504 44.6162 36.8824 45.3096 37.0744 46.1842H35.2984C35.1918 45.7469 34.9571 45.4056 34.5944 45.1602C34.2318 44.9149 33.8051 44.7922 33.3144 44.7922C32.8984 44.7922 32.5144 44.8989 32.1624 45.1122C31.8104 45.3149 31.5278 45.6189 31.3144 46.0242C31.1011 46.4189 30.9944 46.9096 30.9944 47.4962C30.9944 48.0829 31.1011 48.5789 31.3144 48.9842C31.5278 49.3789 31.8104 49.6829 32.1624 49.8962C32.5144 50.1096 32.8984 50.2162 33.3144 50.2162C33.8051 50.2162 34.2318 50.0936 34.5944 49.8482C34.9571 49.6029 35.1918 49.2562 35.2984 48.8082H37.0744C36.8931 49.6616 36.4664 50.3496 35.7944 50.8722C35.1224 51.3949 34.2958 51.6562 33.3144 51.6562ZM42.6258 51.6562C41.8471 51.6562 41.1538 51.4856 40.5458 51.1442C39.9485 50.7922 39.4791 50.3069 39.1378 49.6882C38.7965 49.0696 38.6258 48.3496 38.6258 47.5282C38.6258 46.6962 38.7911 45.9656 39.1218 45.3362C39.4631 44.7069 39.9325 44.2162 40.5298 43.8642C41.1378 43.5122 41.8418 43.3362 42.6418 43.3362C43.4205 43.3362 44.0978 43.5122 44.6738 43.8642C45.2498 44.2056 45.6978 44.6642 46.0178 45.2402C46.3378 45.8162 46.4978 46.4509 46.4978 47.1442C46.4978 47.2509 46.4925 47.3682 46.4818 47.4962C46.4818 47.6136 46.4765 47.7469 46.4658 47.8962H40.2898C40.3431 48.6642 40.5938 49.2509 41.0418 49.6562C41.5005 50.0509 42.0285 50.2482 42.6258 50.2482C43.1058 50.2482 43.5058 50.1416 43.8258 49.9282C44.1565 49.7042 44.4018 49.4056 44.5618 49.0322H46.2578C46.0445 49.7789 45.6178 50.4029 44.9778 50.9042C44.3485 51.4056 43.5645 51.6562 42.6258 51.6562ZM42.6258 44.7282C42.0605 44.7282 41.5591 44.8989 41.1218 45.2402C40.6845 45.5709 40.4178 46.0722 40.3218 46.7442H44.8018C44.7698 46.1256 44.5511 45.6349 44.1458 45.2722C43.7405 44.9096 43.2338 44.7282 42.6258 44.7282Z" fill="white"/>
<defs>
<clipPath id="clip0_2171_486">
<rect width="24" height="24" fill="white" transform="translate(12.4668 0.874634)"/>
</clipPath>
</defs>
</svg>
