<svg width="78" height="57" viewBox="0 0 78 57" fill="none" xmlns="http://www.w3.org/2000/svg">
<path d="M2.1028 51.0864V39.8864H6.3268C7.48946 39.8864 8.36946 40.1584 8.9668 40.7024C9.56413 41.2464 9.8628 41.9291 9.8628 42.7504C9.8628 43.4651 9.6708 44.0358 9.2868 44.4624C8.9028 44.8784 8.4388 45.1611 7.8948 45.3104C8.32146 45.3958 8.70013 45.5664 9.0308 45.8224C9.37213 46.0784 9.6388 46.3984 9.8308 46.7824C10.0228 47.1664 10.1188 47.5824 10.1188 48.0304C10.1188 48.6064 9.9748 49.1291 9.6868 49.5984C9.40946 50.0571 8.9988 50.4198 8.4548 50.6864C7.9108 50.9531 7.24413 51.0864 6.4548 51.0864H2.1028ZM3.7988 44.6864H6.1188C6.76946 44.6864 7.26546 44.5371 7.6068 44.2384C7.94813 43.9291 8.1188 43.5078 8.1188 42.9744C8.1188 42.4518 7.94813 42.0358 7.6068 41.7264C7.27613 41.4171 6.76946 41.2624 6.0868 41.2624H3.7988V44.6864ZM3.7988 49.6944H6.2308C6.91346 49.6944 7.44146 49.5344 7.8148 49.2144C8.1988 48.8944 8.3908 48.4464 8.3908 47.8704C8.3908 47.2944 8.19346 46.8411 7.7988 46.5104C7.40413 46.1691 6.8708 45.9984 6.1988 45.9984H3.7988V49.6944ZM15.6258 51.2784C14.8471 51.2784 14.1538 51.1078 13.5458 50.7664C12.9485 50.4144 12.4791 49.9291 12.1378 49.3104C11.7965 48.6918 11.6258 47.9718 11.6258 47.1504C11.6258 46.3184 11.7911 45.5878 12.1218 44.9584C12.4631 44.3291 12.9325 43.8384 13.5298 43.4864C14.1378 43.1344 14.8418 42.9584 15.6418 42.9584C16.4205 42.9584 17.0978 43.1344 17.6738 43.4864C18.2498 43.8278 18.6978 44.2864 19.0178 44.8624C19.3378 45.4384 19.4978 46.0731 19.4978 46.7664C19.4978 46.8731 19.4925 46.9904 19.4818 47.1184C19.4818 47.2358 19.4765 47.3691 19.4658 47.5184H13.2898C13.3431 48.2864 13.5938 48.8731 14.0418 49.2784C14.5005 49.6731 15.0285 49.8704 15.6258 49.8704C16.1058 49.8704 16.5058 49.7638 16.8258 49.5504C17.1565 49.3264 17.4018 49.0278 17.5618 48.6544H19.2578C19.0445 49.4011 18.6178 50.0251 17.9778 50.5264C17.3485 51.0278 16.5645 51.2784 15.6258 51.2784ZM15.6258 44.3504C15.0605 44.3504 14.5591 44.5211 14.1218 44.8624C13.6845 45.1931 13.4178 45.6944 13.3218 46.3664H17.8018C17.7698 45.7478 17.5511 45.2571 17.1458 44.8944C16.7405 44.5318 16.2338 44.3504 15.6258 44.3504ZM24.8735 51.2784C24.1055 51.2784 23.4282 51.0971 22.8415 50.7344C22.2549 50.3718 21.7962 49.8758 21.4655 49.2464C21.1349 48.6171 20.9695 47.9024 20.9695 47.1024C20.9695 46.3024 21.1349 45.5931 21.4655 44.9744C21.7962 44.3451 22.2549 43.8544 22.8415 43.5024C23.4389 43.1398 24.1215 42.9584 24.8895 42.9584C25.5189 42.9584 26.0682 43.0811 26.5375 43.3264C27.0175 43.5718 27.3909 43.9184 27.6575 44.3664V39.5664H29.3535V51.0864H27.8335L27.6575 49.8544C27.4015 50.2278 27.0495 50.5584 26.6015 50.8464C26.1535 51.1344 25.5775 51.2784 24.8735 51.2784ZM25.1775 49.8064C25.9029 49.8064 26.4949 49.5558 26.9535 49.0544C27.4229 48.5531 27.6575 47.9078 27.6575 47.1184C27.6575 46.3184 27.4229 45.6731 26.9535 45.1824C26.4949 44.6811 25.9029 44.4304 25.1775 44.4304C24.4522 44.4304 23.8549 44.6811 23.3855 45.1824C22.9162 45.6731 22.6815 46.3184 22.6815 47.1184C22.6815 47.6411 22.7882 48.1051 23.0015 48.5104C23.2149 48.9158 23.5082 49.2358 23.8815 49.4704C24.2655 49.6944 24.6975 49.8064 25.1775 49.8064ZM35.5872 51.0864V39.8864H39.4432C40.3285 39.8864 41.0538 40.0358 41.6192 40.3344C42.1952 40.6331 42.6218 41.0384 42.8992 41.5504C43.1765 42.0518 43.3152 42.6118 43.3152 43.2304C43.3152 43.9238 43.1285 44.5531 42.7552 45.1184C42.3925 45.6838 41.8218 46.0891 41.0432 46.3344L43.4272 51.0864H41.4592L39.2832 46.5744H37.2832V51.0864H35.5872ZM37.2832 45.2944H39.3472C40.1152 45.2944 40.6752 45.1078 41.0272 44.7344C41.3898 44.3611 41.5712 43.8758 41.5712 43.2784C41.5712 42.6811 41.3952 42.2064 41.0432 41.8544C40.6912 41.4918 40.1205 41.3104 39.3312 41.3104H37.2832V45.2944ZM48.4852 51.2784C47.7278 51.2784 47.0452 51.1078 46.4372 50.7664C45.8398 50.4144 45.3652 49.9291 45.0132 49.3104C44.6612 48.6811 44.4852 47.9504 44.4852 47.1184C44.4852 46.2864 44.6612 45.5611 45.0132 44.9424C45.3758 44.3131 45.8612 43.8278 46.4692 43.4864C47.0772 43.1344 47.7545 42.9584 48.5012 42.9584C49.2585 42.9584 49.9358 43.1344 50.5332 43.4864C51.1412 43.8278 51.6212 44.3131 51.9732 44.9424C52.3358 45.5611 52.5172 46.2864 52.5172 47.1184C52.5172 47.9504 52.3358 48.6811 51.9732 49.3104C51.6212 49.9291 51.1412 50.4144 50.5332 50.7664C49.9252 51.1078 49.2425 51.2784 48.4852 51.2784ZM48.4852 49.8224C48.8905 49.8224 49.2638 49.7211 49.6052 49.5184C49.9572 49.3158 50.2398 49.0171 50.4532 48.6224C50.6665 48.2171 50.7732 47.7158 50.7732 47.1184C50.7732 46.5211 50.6665 46.0251 50.4532 45.6304C50.2505 45.2251 49.9732 44.9211 49.6212 44.7184C49.2798 44.5158 48.9065 44.4144 48.5012 44.4144C48.0958 44.4144 47.7172 44.5158 47.3652 44.7184C47.0238 44.9211 46.7465 45.2251 46.5332 45.6304C46.3198 46.0251 46.2132 46.5211 46.2132 47.1184C46.2132 47.7158 46.3198 48.2171 46.5332 48.6224C46.7465 49.0171 47.0238 49.3158 47.3652 49.5184C47.7065 49.7211 48.0798 49.8224 48.4852 49.8224ZM58.0633 51.2784C57.306 51.2784 56.6233 51.1078 56.0153 50.7664C55.418 50.4144 54.9433 49.9291 54.5913 49.3104C54.2393 48.6811 54.0633 47.9504 54.0633 47.1184C54.0633 46.2864 54.2393 45.5611 54.5913 44.9424C54.954 44.3131 55.4393 43.8278 56.0473 43.4864C56.6553 43.1344 57.3326 42.9584 58.0793 42.9584C58.8366 42.9584 59.514 43.1344 60.1113 43.4864C60.7193 43.8278 61.1993 44.3131 61.5513 44.9424C61.914 45.5611 62.0953 46.2864 62.0953 47.1184C62.0953 47.9504 61.914 48.6811 61.5513 49.3104C61.1993 49.9291 60.7193 50.4144 60.1113 50.7664C59.5033 51.1078 58.8206 51.2784 58.0633 51.2784ZM58.0633 49.8224C58.4686 49.8224 58.842 49.7211 59.1833 49.5184C59.5353 49.3158 59.818 49.0171 60.0313 48.6224C60.2446 48.2171 60.3513 47.7158 60.3513 47.1184C60.3513 46.5211 60.2446 46.0251 60.0313 45.6304C59.8286 45.2251 59.5513 44.9211 59.1993 44.7184C58.858 44.5158 58.4846 44.4144 58.0793 44.4144C57.674 44.4144 57.2953 44.5158 56.9433 44.7184C56.602 44.9211 56.3246 45.2251 56.1113 45.6304C55.898 46.0251 55.7913 46.5211 55.7913 47.1184C55.7913 47.7158 55.898 48.2171 56.1113 48.6224C56.3246 49.0171 56.602 49.3158 56.9433 49.5184C57.2846 49.7211 57.658 49.8224 58.0633 49.8224ZM63.9294 51.0864V43.1504H65.4334L65.5774 44.2704C65.8334 43.8651 66.1694 43.5451 66.5854 43.3104C67.0121 43.0758 67.5028 42.9584 68.0574 42.9584C69.3161 42.9584 70.1908 43.4544 70.6814 44.4464C70.9694 43.9878 71.3534 43.6251 71.8334 43.3584C72.3241 43.0918 72.8521 42.9584 73.4174 42.9584C74.4094 42.9584 75.1881 43.2571 75.7534 43.8544C76.3188 44.4518 76.6014 45.3424 76.6014 46.5264V51.0864H74.9054V46.7024C74.9054 45.1664 74.3188 44.3984 73.1454 44.3984C72.5481 44.3984 72.0574 44.6224 71.6734 45.0704C71.3001 45.5184 71.1134 46.1584 71.1134 46.9904V51.0864H69.4174V46.7024C69.4174 45.1664 68.8254 44.3984 67.6414 44.3984C67.0548 44.3984 66.5694 44.6224 66.1854 45.0704C65.8121 45.5184 65.6254 46.1584 65.6254 46.9904V51.0864H63.9294Z" fill="#808080"/>
<g clip-path="url(#clip0_2171_495)">
<path d="M29.4586 13.5139H49.4752C50.3002 13.5139 50.9689 12.8451 50.9689 12.0201C50.9689 11.1951 50.3002 10.5264 49.4752 10.5264H29.4586C28.6336 10.5264 27.9648 11.1951 27.9648 12.0201C27.9648 12.8451 28.6336 13.5139 29.4586 13.5139Z" fill="#666666"/>
<path d="M40.9606 7.30438C40.5246 7.30438 40.1699 7.65904 40.1699 8.09502V9.12004H46.2889V8.09502C46.2889 7.65904 45.9343 7.30438 45.4983 7.30438H40.9606Z" fill="#666666"/>
<path d="M31.2373 8.09508C31.2373 6.88369 32.2228 5.89819 33.4342 5.89819H37.972C38.5484 5.89819 39.0734 6.12169 39.4657 6.48619C39.858 6.12169 40.383 5.89819 40.9595 5.89819H45.4972C46.7086 5.89819 47.6941 6.88369 47.6941 8.09508V9.12009H49.9764V4.27697C49.9764 3.45197 49.3076 2.7832 48.4826 2.7832H30.4488C29.6238 2.7832 28.9551 3.45197 28.9551 4.27697V9.12009H31.2373V8.09508Z" fill="#666666"/>
<path d="M33.4352 7.30438C32.9992 7.30438 32.6445 7.65904 32.6445 8.09502V9.12004H38.7635V8.09502C38.7635 7.65904 38.4089 7.30438 37.9729 7.30438H33.4352Z" fill="#666666"/>
<path d="M27.4668 14.9201V21.3897H28.873V18.8257H50.0605V21.3897H51.4668V14.9201H27.4668Z" fill="#666666"/>
</g>
<defs>
<clipPath id="clip0_2171_495">
<rect width="24" height="24" fill="white" transform="translate(27.4668 0.0864258)"/>
</clipPath>
</defs>
</svg>
