<svg width="59" height="60" viewBox="0 0 59 60" fill="none" xmlns="http://www.w3.org/2000/svg">
<path d="M1.6028 54.4348V43.2348H3.2988V48.0348H8.7228V43.2348H10.4188V54.4348H8.7228V49.4268H3.2988V54.4348H1.6028ZM15.3205 54.6268C14.6485 54.6268 14.0939 54.5148 13.6565 54.2908C13.2192 54.0668 12.8939 53.7735 12.6805 53.4108C12.4672 53.0375 12.3605 52.6321 12.3605 52.1948C12.3605 51.4268 12.6592 50.8188 13.2565 50.3708C13.8539 49.9228 14.7072 49.6988 15.8165 49.6988H17.8965V49.5548C17.8965 48.9361 17.7259 48.4721 17.3845 48.1628C17.0539 47.8535 16.6219 47.6988 16.0885 47.6988C15.6192 47.6988 15.2085 47.8161 14.8565 48.0508C14.5152 48.2748 14.3072 48.6108 14.2325 49.0588H12.5365C12.5899 48.4828 12.7819 47.9921 13.1125 47.5868C13.4539 47.1708 13.8805 46.8561 14.3925 46.6428C14.9152 46.4188 15.4859 46.3068 16.1045 46.3068C17.2139 46.3068 18.0725 46.6001 18.6805 47.1868C19.2885 47.7628 19.5925 48.5521 19.5925 49.5548V54.4348H18.1205L17.9765 53.0748C17.7525 53.5121 17.4272 53.8801 17.0005 54.1788C16.5739 54.4775 16.0139 54.6268 15.3205 54.6268ZM15.6565 53.2508C16.1152 53.2508 16.4992 53.1441 16.8085 52.9308C17.1285 52.7068 17.3739 52.4135 17.5445 52.0508C17.7259 51.6881 17.8379 51.2881 17.8805 50.8508H15.9925C15.3205 50.8508 14.8405 50.9681 14.5525 51.2028C14.2752 51.4375 14.1365 51.7308 14.1365 52.0828C14.1365 52.4455 14.2699 52.7335 14.5365 52.9468C14.8139 53.1495 15.1872 53.2508 15.6565 53.2508ZM21.57 54.4348V42.9148H23.266V54.4348H21.57ZM25.4138 54.4348V42.9148H27.1098V54.4348H25.4138ZM30.8415 54.4348L28.5055 46.4988H30.2015L31.7375 52.4828L33.4655 46.4988H35.3535L37.0815 52.4828L38.6175 46.4988H40.3135L37.9775 54.4348H36.2335L34.4095 48.1948L32.5855 54.4348H30.8415ZM44.0393 54.6268C43.3673 54.6268 42.8126 54.5148 42.3753 54.2908C41.938 54.0668 41.6126 53.7735 41.3993 53.4108C41.186 53.0375 41.0793 52.6321 41.0793 52.1948C41.0793 51.4268 41.378 50.8188 41.9753 50.3708C42.5726 49.9228 43.426 49.6988 44.5353 49.6988H46.6153V49.5548C46.6153 48.9361 46.4446 48.4721 46.1033 48.1628C45.7726 47.8535 45.3406 47.6988 44.8073 47.6988C44.338 47.6988 43.9273 47.8161 43.5753 48.0508C43.234 48.2748 43.026 48.6108 42.9513 49.0588H41.2553C41.3086 48.4828 41.5006 47.9921 41.8313 47.5868C42.1726 47.1708 42.5993 46.8561 43.1113 46.6428C43.634 46.4188 44.2046 46.3068 44.8233 46.3068C45.9326 46.3068 46.7913 46.6001 47.3993 47.1868C48.0073 47.7628 48.3113 48.5521 48.3113 49.5548V54.4348H46.8393L46.6953 53.0748C46.4713 53.5121 46.146 53.8801 45.7193 54.1788C45.2926 54.4775 44.7326 54.6268 44.0393 54.6268ZM44.3753 53.2508C44.834 53.2508 45.218 53.1441 45.5273 52.9308C45.8473 52.7068 46.0926 52.4135 46.2633 52.0508C46.4446 51.6881 46.5566 51.2881 46.5993 50.8508H44.7113C44.0393 50.8508 43.5593 50.9681 43.2713 51.2028C42.994 51.4375 42.8553 51.7308 42.8553 52.0828C42.8553 52.4455 42.9886 52.7335 43.2553 52.9468C43.5326 53.1495 43.906 53.2508 44.3753 53.2508ZM50.9668 57.9548L52.8708 53.7788H52.4068L49.2708 46.4988H51.1108L53.5428 52.3708L56.0868 46.4988H57.8788L52.7588 57.9548H50.9668Z" fill="#808080"/>
<g clip-path="url(#clip0_2171_507)">
<path d="M41.0918 8.05127H17.8418C17.6343 8.05127 17.4668 7.88373 17.4668 7.67627V6.17554C17.4668 5.96808 17.6343 5.80054 17.8418 5.80054H41.0918C41.2993 5.80054 41.4668 5.96808 41.4668 6.17554V7.67627C41.4668 7.88373 41.2993 8.05127 41.0918 8.05127ZM18.2168 7.30127H40.7168V6.55054H18.2168V7.30127Z" fill="#666666"/>
<path d="M18.2168 19.683C18.0093 19.683 17.8418 19.5155 17.8418 19.308V7.7431C17.8418 7.53564 18.0093 7.3681 18.2168 7.3681C18.4243 7.3681 18.5918 7.53564 18.5918 7.7431V19.308C18.5918 19.5155 18.4243 19.683 18.2168 19.683Z" fill="#666666"/>
<path d="M19.3418 19.683C19.1343 19.683 18.9668 19.5155 18.9668 19.308V7.7431C18.9668 7.53564 19.1343 7.3681 19.3418 7.3681C19.5493 7.3681 19.7168 7.53564 19.7168 7.7431V19.308C19.7168 19.5155 19.5493 19.683 19.3418 19.683Z" fill="#666666"/>
<path d="M39.5918 19.683C39.3843 19.683 39.2168 19.5155 39.2168 19.308V7.7431C39.2168 7.53564 39.3843 7.3681 39.5918 7.3681C39.7993 7.3681 39.9668 7.53564 39.9668 7.7431V19.308C39.9668 19.5155 39.7993 19.683 39.5918 19.683Z" fill="#666666"/>
<path d="M40.7168 19.683C40.5093 19.683 40.3418 19.5155 40.3418 19.308V7.7431C40.3418 7.53564 40.5093 7.3681 40.7168 7.3681C40.9243 7.3681 41.0918 7.53564 41.0918 7.7431V19.308C41.0918 19.5155 40.9243 19.683 40.7168 19.683Z" fill="#666666"/>
<path d="M19.3418 19.683H18.2168C18.0093 19.683 17.8418 19.5155 17.8418 19.308C17.8418 19.1006 18.0093 18.933 18.2168 18.933H19.3418C19.5493 18.933 19.7168 19.1006 19.7168 19.308C19.7168 19.5155 19.5493 19.683 19.3418 19.683Z" fill="#666666"/>
<path d="M40.7168 19.683H39.5918C39.3843 19.683 39.2168 19.5155 39.2168 19.308C39.2168 19.1006 39.3843 18.933 39.5918 18.933H40.7168C40.9243 18.933 41.0918 19.1006 41.0918 19.308C41.0918 19.5155 40.9243 19.683 40.7168 19.683Z" fill="#666666"/>
<path d="M39.5918 13.3058H19.3418C19.1343 13.3058 18.9668 13.1381 18.9668 12.9308C18.9668 12.7234 19.1343 12.5558 19.3418 12.5558H39.5918C39.7993 12.5558 39.9668 12.7234 39.9668 12.9308C39.9668 13.1381 39.7993 13.3058 39.5918 13.3058Z" fill="#666666"/>
<path d="M39.5918 14.4316H19.3418C19.1343 14.4316 18.9668 14.2639 18.9668 14.0566C18.9668 13.8491 19.1343 13.6816 19.3418 13.6816H39.5918C39.7993 13.6816 39.9668 13.8491 39.9668 14.0566C39.9668 14.2639 39.7993 14.4316 39.5918 14.4316Z" fill="#666666"/>
<path d="M20.8418 13.3066C20.6343 13.3066 20.4668 13.1389 20.4668 12.9316C20.4668 11.8976 21.3076 11.0566 22.3414 11.0566C22.5487 11.0566 22.7164 11.2241 22.7164 11.4316C22.7164 11.6389 22.5487 11.8066 22.3414 11.8066C21.7216 11.8066 21.2168 12.3112 21.2168 12.9316C21.2168 13.1389 21.0491 13.3066 20.8418 13.3066Z" fill="#666666"/>
<path d="M24.5914 13.3066C24.384 13.3066 24.2164 13.1389 24.2164 12.9316C24.2164 12.3112 23.7116 11.8066 23.0918 11.8066C22.8845 11.8066 22.7168 11.6389 22.7168 11.4316C22.7168 11.2241 22.8845 11.0566 23.0918 11.0566C24.1256 11.0566 24.9664 11.8976 24.9664 12.9316C24.9664 13.1389 24.7989 13.3066 24.5914 13.3066Z" fill="#666666"/>
<path d="M21.2168 12.3147C21.0093 12.3147 20.8418 12.147 20.8418 11.9397V9.93158C20.8418 9.72412 21.0093 9.55658 21.2168 9.55658C21.4241 9.55658 21.5918 9.72412 21.5918 9.93158V11.9397C21.5918 12.147 21.4241 12.3147 21.2168 12.3147Z" fill="#666666"/>
<path d="M24.2148 12.3147C24.0074 12.3147 23.8398 12.147 23.8398 11.9397V9.93158C23.8398 9.72412 24.0074 9.55658 24.2148 9.55658C24.4221 9.55658 24.5898 9.72412 24.5898 9.93158V11.9397C24.5898 12.147 24.4221 12.3147 24.2148 12.3147Z" fill="#666666"/>
<path d="M21.9668 10.6823C21.7593 10.6823 21.5918 10.5146 21.5918 10.3073V9.18158C21.5918 8.97412 21.7593 8.80658 21.9668 8.80658C22.1743 8.80658 22.3418 8.97412 22.3418 9.18158V10.3073C22.3418 10.5146 22.1743 10.6823 21.9668 10.6823Z" fill="#666666"/>
<path d="M23.4668 9.55658H21.9668C21.7593 9.55658 21.5918 9.38885 21.5918 9.18158C21.5918 8.97412 21.7593 8.80658 21.9668 8.80658H23.4668C23.6743 8.80658 23.8418 8.97412 23.8418 9.18158C23.8418 9.38885 23.6743 9.55658 23.4668 9.55658Z" fill="#666666"/>
<path d="M23.4668 10.6823C23.2593 10.6823 23.0918 10.5146 23.0918 10.3073V9.18158C23.0918 8.97412 23.2593 8.80658 23.4668 8.80658C23.6743 8.80658 23.8418 8.97412 23.8418 9.18158V10.3073C23.8418 10.5146 23.6743 10.6823 23.4668 10.6823Z" fill="#666666"/>
<path d="M21.9675 10.3066H21.2168C21.0093 10.3066 20.8418 10.1389 20.8418 9.93158C20.8418 9.72412 21.0093 9.55658 21.2168 9.55658H21.9675C22.175 9.55658 22.3425 9.72412 22.3425 9.93158C22.3425 10.1389 22.175 10.3066 21.9675 10.3066Z" fill="#666666"/>
<path d="M24.2153 10.3066H23.4668C23.2593 10.3066 23.0918 10.1389 23.0918 9.93158C23.0918 9.72412 23.2593 9.55658 23.4668 9.55658H24.2153C24.4226 9.55658 24.5903 9.72412 24.5903 9.93158C24.5903 10.1389 24.4226 10.3066 24.2153 10.3066Z" fill="#666666"/>
<path d="M23.0913 11.8066H22.3398C22.1324 11.8066 21.9648 11.6389 21.9648 11.4316C21.9648 11.2241 22.1324 11.0566 22.3398 11.0566H23.0913C23.2988 11.0566 23.4663 11.2241 23.4663 11.4316C23.4663 11.6389 23.2988 11.8066 23.0913 11.8066Z" fill="#666666"/>
<path d="M25.7168 13.3066C25.5093 13.3066 25.3418 13.1389 25.3418 12.9316C25.3418 11.8976 26.1826 11.0566 27.2164 11.0566C27.4237 11.0566 27.5914 11.2241 27.5914 11.4316C27.5914 11.6389 27.4237 11.8066 27.2164 11.8066C26.5966 11.8066 26.0918 12.3112 26.0918 12.9316C26.0918 13.1389 25.9241 13.3066 25.7168 13.3066Z" fill="#666666"/>
<path d="M29.4664 13.3066C29.259 13.3066 29.0914 13.1389 29.0914 12.9316C29.0914 12.3112 28.5866 11.8066 27.9668 11.8066C27.7595 11.8066 27.5918 11.6389 27.5918 11.4316C27.5918 11.2241 27.7595 11.0566 27.9668 11.0566C29.0006 11.0566 29.8414 11.8976 29.8414 12.9316C29.8414 13.1389 29.6739 13.3066 29.4664 13.3066Z" fill="#666666"/>
<path d="M26.0918 12.3147C25.8843 12.3147 25.7168 12.147 25.7168 11.9397V9.93158C25.7168 9.72412 25.8843 9.55658 26.0918 9.55658C26.2991 9.55658 26.4668 9.72412 26.4668 9.93158V11.9397C26.4668 12.147 26.2991 12.3147 26.0918 12.3147Z" fill="#666666"/>
<path d="M29.0898 12.3147C28.8824 12.3147 28.7148 12.147 28.7148 11.9397V9.93158C28.7148 9.72412 28.8824 9.55658 29.0898 9.55658C29.2971 9.55658 29.4648 9.72412 29.4648 9.93158V11.9397C29.4648 12.147 29.2971 12.3147 29.0898 12.3147Z" fill="#666666"/>
<path d="M26.8418 10.6823C26.6343 10.6823 26.4668 10.5146 26.4668 10.3073V9.18158C26.4668 8.97412 26.6343 8.80658 26.8418 8.80658C27.0493 8.80658 27.2168 8.97412 27.2168 9.18158V10.3073C27.2168 10.5146 27.0493 10.6823 26.8418 10.6823Z" fill="#666666"/>
<path d="M28.3418 9.55658H26.8418C26.6343 9.55658 26.4668 9.38885 26.4668 9.18158C26.4668 8.97412 26.6343 8.80658 26.8418 8.80658H28.3418C28.5493 8.80658 28.7168 8.97412 28.7168 9.18158C28.7168 9.38885 28.5493 9.55658 28.3418 9.55658Z" fill="#666666"/>
<path d="M28.3418 10.6823C28.1343 10.6823 27.9668 10.5146 27.9668 10.3073V9.18158C27.9668 8.97412 28.1343 8.80658 28.3418 8.80658C28.5493 8.80658 28.7168 8.97412 28.7168 9.18158V10.3073C28.7168 10.5146 28.5493 10.6823 28.3418 10.6823Z" fill="#666666"/>
<path d="M26.8425 10.3066H26.0918C25.8843 10.3066 25.7168 10.1389 25.7168 9.93158C25.7168 9.72412 25.8843 9.55658 26.0918 9.55658H26.8425C27.05 9.55658 27.2175 9.72412 27.2175 9.93158C27.2175 10.1389 27.05 10.3066 26.8425 10.3066Z" fill="#666666"/>
<path d="M29.0903 10.3066H28.3418C28.1343 10.3066 27.9668 10.1389 27.9668 9.93158C27.9668 9.72412 28.1343 9.55658 28.3418 9.55658H29.0903C29.2976 9.55658 29.4653 9.72412 29.4653 9.93158C29.4653 10.1389 29.2976 10.3066 29.0903 10.3066Z" fill="#666666"/>
<path d="M27.9663 11.8066H27.2148C27.0074 11.8066 26.8398 11.6389 26.8398 11.4316C26.8398 11.2241 27.0074 11.0566 27.2148 11.0566H27.9663C28.1738 11.0566 28.3413 11.2241 28.3413 11.4316C28.3413 11.6389 28.1738 11.8066 27.9663 11.8066Z" fill="#666666"/>
<path d="M29.4746 18.9323C29.2672 18.9323 29.0996 18.7646 29.0996 18.5573C29.0996 17.9366 29.6048 17.4316 30.2253 17.4316C30.4328 17.4316 30.6003 17.5991 30.6003 17.8066C30.6003 18.0139 30.4328 18.1816 30.2253 18.1816C30.0181 18.1816 29.8496 18.3499 29.8496 18.5573C29.8496 18.7646 29.6817 18.9323 29.4746 18.9323Z" fill="#666666"/>
<path d="M33.2266 18.9323C33.0193 18.9323 32.8516 18.7646 32.8516 18.5573C32.8516 18.3502 32.6837 18.1823 32.4766 18.1823C32.2693 18.1823 32.1016 18.0146 32.1016 17.8073C32.1016 17.5999 32.2693 17.4323 32.4766 17.4323C33.0969 17.4323 33.6016 17.937 33.6016 18.5573C33.6016 18.7646 33.434 18.9323 33.2266 18.9323Z" fill="#666666"/>
<path d="M33.2257 19.683H29.4746C29.2672 19.683 29.0996 19.5155 29.0996 19.308C29.0996 19.1006 29.2672 18.933 29.4746 18.933H33.2261C33.4335 18.933 33.6011 19.1006 33.6011 19.308C33.6011 19.5155 33.4332 19.683 33.2257 19.683Z" fill="#666666"/>
<path d="M32.5061 18.1816H30.1953C29.988 18.1816 29.8203 18.0139 29.8203 17.8066C29.8203 17.5991 29.988 17.4316 30.1953 17.4316H32.5061C32.7136 17.4316 32.8811 17.5991 32.8811 17.8066C32.8811 18.0139 32.7136 18.1816 32.5061 18.1816Z" fill="#666666"/>
<path d="M30.2246 18.1816C30.0172 18.1816 29.8496 18.0139 29.8496 17.8066V15.5573C29.8496 15.3499 30.0172 15.1823 30.2246 15.1823C30.4321 15.1823 30.5996 15.3499 30.5996 15.5573V17.8066C30.5996 18.0139 30.4321 18.1816 30.2246 18.1816Z" fill="#666666"/>
<path d="M32.4766 18.1823C32.2693 18.1823 32.1016 18.0146 32.1016 17.8073V15.5573C32.1016 15.3499 32.2693 15.1823 32.4766 15.1823C32.684 15.1823 32.8516 15.3499 32.8516 15.5573V17.8073C32.8516 18.0146 32.684 18.1823 32.4766 18.1823Z" fill="#666666"/>
<path d="M29.4746 19.683C29.2672 19.683 29.0996 19.5155 29.0996 19.308V18.5573C29.0996 18.3499 29.2672 18.1823 29.4746 18.1823C29.6821 18.1823 29.8496 18.3499 29.8496 18.5573V19.308C29.8496 19.5155 29.6817 19.683 29.4746 19.683Z" fill="#666666"/>
<path d="M33.2266 19.683C33.0193 19.683 32.8516 19.5155 32.8516 19.308V18.5573C32.8516 18.3499 33.0193 18.1823 33.2266 18.1823C33.434 18.1823 33.6016 18.3499 33.6016 18.5573V19.308C33.6016 19.5155 33.434 19.683 33.2266 19.683Z" fill="#666666"/>
<path d="M32.4761 15.9323H30.2246C30.0172 15.9323 29.8496 15.7646 29.8496 15.5573C29.8496 15.3499 30.0172 15.1823 30.2246 15.1823H32.4761C32.6835 15.1823 32.8511 15.3499 32.8511 15.5573C32.8511 15.7646 32.6835 15.9323 32.4761 15.9323Z" fill="#666666"/>
<path d="M32.8507 17.0573H29.8496C29.6422 17.0573 29.4746 16.8896 29.4746 16.6823C29.4746 16.4749 29.6422 16.3073 29.8496 16.3073H32.8507C33.0582 16.3073 33.2257 16.4749 33.2257 16.6823C33.2257 16.8896 33.0582 17.0573 32.8507 17.0573Z" fill="#666666"/>
<path d="M34.3496 18.9323C34.1422 18.9323 33.9746 18.7646 33.9746 18.5573C33.9746 17.9366 34.4798 17.4316 35.1003 17.4316C35.3078 17.4316 35.4753 17.5991 35.4753 17.8066C35.4753 18.0139 35.3078 18.1816 35.1003 18.1816C34.8931 18.1816 34.7246 18.3499 34.7246 18.5573C34.7246 18.7646 34.5567 18.9323 34.3496 18.9323Z" fill="#666666"/>
<path d="M38.1016 18.9323C37.8943 18.9323 37.7266 18.7646 37.7266 18.5573C37.7266 18.3502 37.5587 18.1823 37.3516 18.1823C37.1443 18.1823 36.9766 18.0146 36.9766 17.8073C36.9766 17.5999 37.1443 17.4323 37.3516 17.4323C37.9719 17.4323 38.4766 17.937 38.4766 18.5573C38.4766 18.7646 38.309 18.9323 38.1016 18.9323Z" fill="#666666"/>
<path d="M38.1007 19.683H34.3496C34.1422 19.683 33.9746 19.5155 33.9746 19.308C33.9746 19.1006 34.1422 18.933 34.3496 18.933H38.1011C38.3085 18.933 38.4761 19.1006 38.4761 19.308C38.4761 19.5155 38.3082 19.683 38.1007 19.683Z" fill="#666666"/>
<path d="M37.3811 18.1816H35.0703C34.863 18.1816 34.6953 18.0139 34.6953 17.8066C34.6953 17.5991 34.863 17.4316 35.0703 17.4316H37.3811C37.5886 17.4316 37.7561 17.5991 37.7561 17.8066C37.7561 18.0139 37.5886 18.1816 37.3811 18.1816Z" fill="#666666"/>
<path d="M35.0996 18.1816C34.8922 18.1816 34.7246 18.0139 34.7246 17.8066V15.5573C34.7246 15.3499 34.8922 15.1823 35.0996 15.1823C35.3071 15.1823 35.4746 15.3499 35.4746 15.5573V17.8066C35.4746 18.0139 35.3071 18.1816 35.0996 18.1816Z" fill="#666666"/>
<path d="M37.3516 18.1823C37.1443 18.1823 36.9766 18.0146 36.9766 17.8073V15.5573C36.9766 15.3499 37.1443 15.1823 37.3516 15.1823C37.559 15.1823 37.7266 15.3499 37.7266 15.5573V17.8073C37.7266 18.0146 37.559 18.1823 37.3516 18.1823Z" fill="#666666"/>
<path d="M34.3496 19.683C34.1422 19.683 33.9746 19.5155 33.9746 19.308V18.5573C33.9746 18.3499 34.1422 18.1823 34.3496 18.1823C34.5571 18.1823 34.7246 18.3499 34.7246 18.5573V19.308C34.7246 19.5155 34.5567 19.683 34.3496 19.683Z" fill="#666666"/>
<path d="M38.1016 19.683C37.8943 19.683 37.7266 19.5155 37.7266 19.308V18.5573C37.7266 18.3499 37.8943 18.1823 38.1016 18.1823C38.309 18.1823 38.4766 18.3499 38.4766 18.5573V19.308C38.4766 19.5155 38.309 19.683 38.1016 19.683Z" fill="#666666"/>
<path d="M37.3511 15.9323H35.0996C34.8922 15.9323 34.7246 15.7646 34.7246 15.5573C34.7246 15.3499 34.8922 15.1823 35.0996 15.1823H37.3511C37.5585 15.1823 37.7261 15.3499 37.7261 15.5573C37.7261 15.7646 37.5585 15.9323 37.3511 15.9323Z" fill="#666666"/>
<path d="M37.7257 17.0573H34.7246C34.5172 17.0573 34.3496 16.8896 34.3496 16.6823C34.3496 16.4749 34.5172 16.3073 34.7246 16.3073H37.7257C37.9332 16.3073 38.1007 16.4749 38.1007 16.6823C38.1007 16.8896 37.9332 17.0573 37.7257 17.0573Z" fill="#666666"/>
</g>
<defs>
<clipPath id="clip0_2171_507">
<rect width="24" height="24" fill="white" transform="translate(17.4668 0.738037)"/>
</clipPath>
</defs>
</svg>
