<svg width="96" height="41" viewBox="0 0 96 41" fill="none" xmlns="http://www.w3.org/2000/svg">
<circle cx="76" cy="20.7456" r="20" fill="#F4F6F6"/>
<g clip-path="url(#clip0_2120_371)">
<path d="M80.4454 20.1213L73.3252 13.0012C73.1605 12.8364 72.9407 12.7456 72.7063 12.7456C72.4719 12.7456 72.2521 12.8364 72.0874 13.0012L71.563 13.5254C71.2218 13.867 71.2218 14.4222 71.563 14.7633L77.542 20.7423L71.5564 26.7279C71.3917 26.8927 71.3008 27.1124 71.3008 27.3467C71.3008 27.5813 71.3917 27.801 71.5564 27.9659L72.0807 28.49C72.2456 28.6548 72.4653 28.7456 72.6997 28.7456C72.9341 28.7456 73.1539 28.6548 73.3186 28.49L80.4454 21.3634C80.6105 21.1981 80.7012 20.9773 80.7006 20.7427C80.7012 20.5071 80.6105 20.2865 80.4454 20.1213Z" fill="#666666"/>
</g>
<circle cx="20" cy="20.7456" r="20" fill="#F4F6F6"/>
<g clip-path="url(#clip1_2120_371)">
<path d="M15.5546 21.3699L22.6748 28.49C22.8395 28.6548 23.0593 28.7456 23.2937 28.7456C23.5281 28.7456 23.7479 28.6548 23.9126 28.49L24.437 27.9658C24.7782 27.6242 24.7782 27.069 24.437 26.7279L18.458 20.7489L24.4436 14.7633C24.6083 14.5985 24.6992 14.3788 24.6992 14.1445C24.6992 13.91 24.6083 13.6902 24.4436 13.5253L23.9193 13.0012C23.7544 12.8364 23.5347 12.7456 23.3003 12.7456C23.0659 12.7456 22.8461 12.8364 22.6814 13.0012L15.5546 20.1278C15.3895 20.2931 15.2988 20.5139 15.2994 20.7485C15.2988 20.9841 15.3895 21.2047 15.5546 21.3699Z" fill="#D1CECE"/>
</g>
<defs>
<clipPath id="clip0_2120_371">
<rect width="16" height="16" fill="white" transform="translate(68 12.7456)"/>
</clipPath>
<clipPath id="clip1_2120_371">
<rect width="16" height="16" fill="white" transform="matrix(-1 0 0 -1 28 28.7456)"/>
</clipPath>
</defs>
</svg>
