<svg width="125" height="21" viewBox="0 0 125 21" fill="none" xmlns="http://www.w3.org/2000/svg">
<g clip-path="url(#clip0_2171_995)">
<path d="M10 20.9253C15.5228 20.9253 20 16.4481 20 10.9253C20 5.40245 15.5228 0.925293 10 0.925293C4.47715 0.925293 0 5.40245 0 10.9253C0 16.4481 4.47715 20.9253 10 20.9253Z" fill="white"/>
<path d="M12.5139 11.3167H10.7295V17.8538H8.02602V11.3167H6.74023V9.01928H8.02602V7.53259C8.02602 6.46945 8.53103 4.80469 10.7536 4.80469L12.7561 4.81307V7.04309H11.3031C11.0648 7.04309 10.7297 7.16217 10.7297 7.66932V9.02141H12.7501L12.5139 11.3167Z" fill="#305F64"/>
</g>
<g clip-path="url(#clip1_2171_995)">
<path d="M45.0019 20.9251C50.5247 20.9251 55.0018 16.448 55.0018 10.9252C55.0018 5.40241 50.5247 0.925293 45.0019 0.925293C39.4791 0.925293 35.002 5.40241 35.002 10.9252C35.002 16.448 39.4791 20.9251 45.0019 20.9251Z" fill="white"/>
<path d="M51.1271 8.11185C50.6986 8.30188 50.2376 8.4304 49.7542 8.4878C50.2478 8.19207 50.6266 7.72414 50.8054 7.16566C50.3435 7.43964 49.8317 7.6384 49.2875 7.74553C48.8515 7.28117 48.2303 6.99097 47.5424 6.99097C46.2226 6.99097 45.1521 8.06141 45.1521 9.38123C45.1521 9.56858 45.1733 9.75093 45.2143 9.92598C43.2278 9.82634 41.4665 8.8748 40.2875 7.42823C40.0817 7.78118 39.9637 8.19207 39.9637 8.63005C39.9637 9.45913 40.386 10.1911 41.027 10.6196C40.6354 10.6073 40.2666 10.4998 39.9445 10.3203C39.9443 10.3305 39.9443 10.3406 39.9443 10.3506C39.9443 11.5087 40.7686 12.4747 41.8618 12.6941C41.6615 12.7491 41.4499 12.7781 41.2322 12.7781C41.0779 12.7781 40.9283 12.7633 40.7825 12.7355C41.0866 13.6849 41.9691 14.376 43.0153 14.3954C42.1971 15.0366 41.1666 15.4186 40.0465 15.4186C39.8539 15.4186 39.6632 15.4074 39.4766 15.3851C40.5338 16.0636 41.7905 16.4591 43.1403 16.4591C47.5368 16.4591 49.9412 12.817 49.9412 9.65806C49.9412 9.55449 49.9389 9.45128 49.9342 9.34896C50.4016 9.01205 50.8068 8.59119 51.1271 8.11185Z" fill="#305F64"/>
</g>
<g clip-path="url(#clip2_2171_995)">
<path d="M81.9141 10.9253C81.9141 11.9824 81.0571 12.8394 80 12.8394C78.9429 12.8394 78.0859 11.9824 78.0859 10.9253C78.0859 9.86816 78.9429 9.01123 80 9.01123C81.0571 9.01123 81.9141 9.86816 81.9141 10.9253Z" fill="white"/>
<path d="M84.4769 7.53873C84.3849 7.2894 84.2381 7.06372 84.0474 6.87848C83.8622 6.68774 83.6366 6.54095 83.3871 6.44894C83.1848 6.37036 82.8809 6.27682 82.321 6.25134C81.7154 6.22372 81.5338 6.21777 80.0006 6.21777C78.4673 6.21777 78.2857 6.22357 77.6802 6.25119C77.1204 6.27682 76.8163 6.37036 76.6141 6.44894C76.3646 6.54095 76.1389 6.68774 75.9538 6.87848C75.7631 7.06372 75.6163 7.28925 75.5241 7.53873C75.4456 7.74106 75.352 8.04517 75.3265 8.60501C75.2989 9.21048 75.293 9.39206 75.293 10.9254C75.293 12.4586 75.2989 12.6402 75.3265 13.2458C75.352 13.8057 75.4456 14.1096 75.5241 14.312C75.6163 14.5614 75.7629 14.787 75.9537 14.9722C76.1389 15.1629 76.3644 15.3097 76.6139 15.4017C76.8163 15.4805 77.1204 15.574 77.6802 15.5995C78.2857 15.6271 78.4671 15.6329 80.0005 15.6329C81.534 15.6329 81.7155 15.6271 82.3209 15.5995C82.8807 15.574 83.1848 15.4805 83.3871 15.4017C83.8879 15.2086 84.2838 14.8127 84.4769 14.312C84.5555 14.1096 84.649 13.8057 84.6747 13.2458C84.7023 12.6402 84.7081 12.4586 84.7081 10.9254C84.7081 9.39206 84.7023 9.21048 84.6747 8.60501C84.6492 8.04517 84.5557 7.74106 84.4769 7.53873ZM80.0006 13.8739C78.372 13.8739 77.0518 12.5538 77.0518 10.9253C77.0518 9.29669 78.372 7.97665 80.0006 7.97665C81.629 7.97665 82.9492 9.29669 82.9492 10.9253C82.9492 12.5538 81.629 13.8739 80.0006 13.8739ZM83.0658 8.54916C82.6852 8.54916 82.3767 8.24063 82.3767 7.86008C82.3767 7.47952 82.6852 7.17099 83.0658 7.17099C83.4464 7.17099 83.7549 7.47952 83.7549 7.86008C83.7547 8.24063 83.4464 8.54916 83.0658 8.54916Z" fill="white"/>
<path d="M80 0.925293C74.478 0.925293 70 5.40329 70 10.9253C70 16.4473 74.478 20.9253 80 20.9253C85.522 20.9253 90 16.4473 90 10.9253C90 5.40329 85.522 0.925293 80 0.925293ZM85.7076 13.2927C85.6798 13.904 85.5826 14.3213 85.4407 14.6866C85.1424 15.4579 84.5326 16.0677 83.7613 16.366C83.3961 16.5079 82.9787 16.6049 82.3676 16.6328C81.7552 16.6608 81.5596 16.6675 80.0002 16.6675C78.4406 16.6675 78.2451 16.6608 77.6326 16.6328C77.0215 16.6049 76.604 16.5079 76.2389 16.366C75.8556 16.2218 75.5086 15.9958 75.2217 15.7036C74.9297 15.4169 74.7037 15.0697 74.5595 14.6866C74.4176 14.3214 74.3204 13.904 74.2926 13.2928C74.2644 12.6804 74.2578 12.4847 74.2578 10.9253C74.2578 9.36584 74.2644 9.17023 74.2924 8.55789C74.3202 7.94662 74.4173 7.5293 74.5592 7.164C74.7034 6.78085 74.9295 6.43372 75.2217 6.147C75.5084 5.8548 75.8556 5.62881 76.2387 5.48462C76.604 5.34271 77.0213 5.24567 77.6326 5.21774C78.2449 5.18982 78.4406 5.18311 80 5.18311C81.5594 5.18311 81.7551 5.18982 82.3674 5.2179C82.9787 5.24567 83.396 5.34271 83.7613 5.48447C84.1444 5.62866 84.4916 5.8548 84.7784 6.147C85.0705 6.43387 85.2966 6.78085 85.4407 7.164C85.5827 7.5293 85.6798 7.94662 85.7077 8.55789C85.7356 9.17023 85.7422 9.36584 85.7422 10.9253C85.7422 12.4847 85.7356 12.6804 85.7076 13.2927Z" fill="white"/>
</g>
<g clip-path="url(#clip3_2171_995)">
<path d="M115 20.9253C120.523 20.9253 125 16.4482 125 10.9253C125 5.40245 120.523 0.925293 115 0.925293C109.477 0.925293 105 5.40245 105 10.9253C105 16.4482 109.477 20.9253 115 20.9253Z" fill="white"/>
<path d="M122.071 3.85327C125.976 7.75886 125.976 14.0908 122.071 17.9963C118.166 21.9016 111.833 21.9018 107.928 17.9963L122.071 3.85327Z" fill="white"/>
<path d="M124.8 12.9279L119.85 7.97876L114.013 8.64337L110.482 14.1097L117.08 20.7072C120.959 19.8866 124.009 16.8182 124.8 12.9279Z" fill="white"/>
<path d="M120.233 8.99531C120.233 8.15701 119.554 7.47754 118.716 7.47754H111.599C110.761 7.47754 110.082 8.15717 110.082 8.99531V13.0653C110.082 13.9036 110.761 14.583 111.599 14.583H118.716C119.554 14.583 120.233 13.9034 120.233 13.0653V8.99531H120.233ZM114.142 12.7473V8.92458L117.041 10.836L114.142 12.7473Z" fill="#305F64"/>
</g>
<defs>
<clipPath id="clip0_2171_995">
<rect width="20" height="20" fill="white" transform="translate(0 0.925293)"/>
</clipPath>
<clipPath id="clip1_2171_995">
<rect width="20" height="20" fill="white" transform="translate(35 0.925293)"/>
</clipPath>
<clipPath id="clip2_2171_995">
<rect width="20" height="20" fill="white" transform="translate(70 0.925293)"/>
</clipPath>
<clipPath id="clip3_2171_995">
<rect width="20" height="20" fill="white" transform="translate(105 0.925293)"/>
</clipPath>
</defs>
</svg>
